<?xml version="1.0" encoding="UTF-8"?>
<svg version="1.1" xmlns="http://www.w3.org/2000/svg" width="393" height="337">
<path d="M0 0 C0.89267578 -0.00386719 1.78535156 -0.00773437 2.70507812 -0.01171875 C3.98995117 -0.00978516 3.98995117 -0.00978516 5.30078125 -0.0078125 C6.45767456 -0.00612061 6.45767456 -0.00612061 7.63793945 -0.00439453 C9.6875 0.125 9.6875 0.125 12.6875 1.125 C14.49785247 1.27798753 16.31101429 1.39882151 18.125 1.5 C24.55784909 1.99602692 30.48653449 3.40250958 36.6875 5.125 C37.66203125 5.37507813 38.6365625 5.62515625 39.640625 5.8828125 C44.87895899 7.24248936 49.74968979 8.90215184 54.6875 11.125 C55.75738159 11.60646484 55.75738159 11.60646484 56.84887695 12.09765625 C87.26689274 25.94081844 112.63876293 47.02552695 129.6875 76.125 C130.13480469 76.86234375 130.58210938 77.5996875 131.04296875 78.359375 C138.9461923 92.00461887 144.22115099 106.58514684 146.6875 122.125 C147.22827268 124.68075368 147.78731323 127.2314789 148.35546875 129.78125 C148.79261503 132.86698847 148.6875 136.00845083 148.6875 139.125 C141.4275 139.125 134.1675 139.125 126.6875 139.125 C124.92674632 134.72311581 124.28244617 131.73583281 123.6875 127.125 C122.7146606 120.65847926 121.46386925 115.08905246 118.6875 109.125 C117.95692035 107.08383852 117.2279286 105.04210841 116.5 103 C114.11169829 96.67759395 110.94186427 91.33268808 107.26171875 85.70703125 C105.6875 83.125 105.6875 83.125 105.6875 81.125 C105.0275 81.125 104.3675 81.125 103.6875 81.125 C103.6875 80.135 103.6875 79.145 103.6875 78.125 C103.0275 78.125 102.3675 78.125 101.6875 78.125 C101.11 77.0525 100.5325 75.98 99.9375 74.875 C98.20166443 71.80629069 96.2310929 69.57775029 93.6875 67.125 C93.6875 66.465 93.6875 65.805 93.6875 65.125 C93.10226562 64.86847656 92.51703125 64.61195312 91.9140625 64.34765625 C89.49515392 63.01937838 87.95551128 61.55975199 86.0625 59.5625 C83.64228041 56.98484611 83.64228041 56.98484611 80.6875 55.125 C80.6875 54.465 80.6875 53.805 80.6875 53.125 C80.0275 53.125 79.3675 53.125 78.6875 53.125 C78.6875 52.465 78.6875 51.805 78.6875 51.125 C77.0375 50.465 75.3875 49.805 73.6875 49.125 C73.6875 48.465 73.6875 47.805 73.6875 47.125 C72.95265381 46.84503174 72.21780762 46.56506348 71.46069336 46.27661133 C68.94038727 45.23001534 66.6742981 44.06495051 64.31640625 42.69921875 C50.48929157 34.81129496 37.43457642 29.14602186 21.6875 26.125 C20.07488281 25.815625 20.07488281 25.815625 18.4296875 25.5 C2.33074421 22.63141273 2.33074421 22.63141273 -13.3125 25.125 C-14.89377513 25.25677293 -16.47786635 25.35545536 -18.0625 25.4375 C-25.11590875 26.02836147 -31.59242836 27.98046101 -38.3125 30.125 C-39.20453125 30.38925781 -40.0965625 30.65351562 -41.015625 30.92578125 C-48.25119943 33.26735518 -54.66481493 36.95622157 -61.20800781 40.77197266 C-61.95405273 41.20300293 -62.70009766 41.6340332 -63.46875 42.078125 C-64.13712891 42.47161133 -64.80550781 42.86509766 -65.49414062 43.27050781 C-67.3125 44.125 -67.3125 44.125 -70.3125 44.125 C-70.3125 44.785 -70.3125 45.445 -70.3125 46.125 C-71.3025 46.125 -72.2925 46.125 -73.3125 46.125 C-73.3125 46.785 -73.3125 47.445 -73.3125 48.125 C-73.910625 48.393125 -74.50875 48.66125 -75.125 48.9375 C-77.35929397 50.15040244 -78.59487004 51.26995964 -80.3125 53.125 C-83.04403256 55.93240846 -85.82343146 58.59728769 -88.8125 61.125 C-94.67267466 65.80807327 -94.67267466 65.80807327 -98.3125 72.125 C-99.5190625 73.300625 -99.5190625 73.300625 -100.75 74.5 C-103.23857784 77.04927486 -104.26031267 78.77713121 -105.3125 82.125 C-105.9725 82.125 -106.6325 82.125 -107.3125 82.125 C-107.3125 83.115 -107.3125 84.105 -107.3125 85.125 C-107.9725 85.125 -108.6325 85.125 -109.3125 85.125 C-109.3125 86.115 -109.3125 87.105 -109.3125 88.125 C-109.9725 88.125 -110.6325 88.125 -111.3125 88.125 C-111.539375 88.888125 -111.76625 89.65125 -112 90.4375 C-113.09853567 93.52386211 -114.31837598 96.40505404 -115.6875 99.375 C-119.38567121 107.44770412 -122.54146413 114.85462052 -123.91796875 123.6796875 C-124.26809452 125.84977398 -124.77937032 127.99248127 -125.3125 130.125 C-125.9725 133.425 -126.6325 136.725 -127.3125 140.125 C-134.5725 140.125 -141.8325 140.125 -149.3125 140.125 C-150.38905502 134.74222488 -150.38905502 134.74222488 -149.3125 131.125 C-149.1659518 129.62695173 -149.04260676 128.12652508 -148.9375 126.625 C-148.37055719 120.61009113 -146.94418482 114.93094647 -145.3125 109.125 C-145.10882813 108.37605469 -144.90515625 107.62710938 -144.6953125 106.85546875 C-142.83974862 100.68170991 -139.88233898 95.06662383 -136.93359375 89.359375 C-135.32048138 86.25872641 -135.32048138 86.25872641 -134.2578125 83.4609375 C-133.30067417 81.0957775 -132.14856128 79.12915299 -130.75 77 C-129.19439276 74.62735276 -128.22105675 72.85067026 -127.3125 70.125 C-126.6525 70.125 -125.9925 70.125 -125.3125 70.125 C-125.044375 69.17625 -124.77625 68.2275 -124.5 67.25 C-123.3125 64.125 -123.3125 64.125 -120.3125 62.125 C-119.9825 61.135 -119.6525 60.145 -119.3125 59.125 C-118.21711662 57.99538588 -117.11385393 56.87256648 -115.9765625 55.78515625 C-112.97939629 52.79502564 -110.21328425 49.59038573 -107.3984375 46.4296875 C-103.65123034 42.28951479 -99.57927015 38.71658894 -95.3125 35.125 C-94.384375 34.34125 -93.45625 33.5575 -92.5 32.75 C-90.3125 31.125 -90.3125 31.125 -88.3125 31.125 C-88.3125 30.465 -88.3125 29.805 -88.3125 29.125 C-87.3225 29.125 -86.3325 29.125 -85.3125 29.125 C-85.3125 28.465 -85.3125 27.805 -85.3125 27.125 C-84.508125 26.83625 -83.70375 26.5475 -82.875 26.25 C-80.1798532 25.39237432 -80.1798532 25.39237432 -79.3125 23.125 C-77.70151347 22.18738879 -76.04838285 21.32108599 -74.375 20.5 C-73.47910156 20.05398437 -72.58320312 19.60796875 -71.66015625 19.1484375 C-69.3125 18.125 -69.3125 18.125 -67.3125 18.125 C-67.3125 17.465 -67.3125 16.805 -67.3125 16.125 C-45.78644508 6.48449688 -23.8216584 -0.10548336 0 0 Z " fill="#EEEEE9" transform="translate(192.3125,18.875)"/>
<path d="M0 0 C7.26 0 14.52 0 22 0 C22.28875 1.60875 22.5775 3.2175 22.875 4.875 C23.060625 5.88175781 23.24625 6.88851562 23.4375 7.92578125 C23.78349454 9.81673751 24.11916335 11.70966033 24.4375 13.60546875 C25.38328463 18.91706278 26.89933039 23.62374521 29.01171875 28.5859375 C29.90695839 30.77272841 30.59216719 32.92115986 31.25 35.1875 C35.29658449 47.61315347 43.41556268 62.19267922 53 71 C53.66 71.845625 54.32 72.69125 55 73.5625 C56.91780818 76.07420101 56.91780818 76.07420101 59.4375 77.9375 C62 80 62 80 64.375 83 C67.3911057 86.44697795 69.95715797 87.93894328 74 90 C74 90.66 74 91.32 74 92 C74.7425 92.28875 75.485 92.5775 76.25 92.875 C78.56739797 93.82302644 80.77917115 94.84845911 83 96 C83 96.66 83 97.32 83 98 C83.58918213 98.12979248 84.17836426 98.25958496 84.78540039 98.39331055 C88.24202961 99.34025395 91.28050202 101.15161198 94.4375 102.8125 C101.44684644 106.39669837 108.34181682 109.0784583 116 111 C117.13050781 111.28617187 118.26101562 111.57234375 119.42578125 111.8671875 C140.02549018 116.67913286 160.40097085 115.71669585 180.875 111.0625 C181.5767334 110.90491211 182.2784668 110.74732422 183.00146484 110.58496094 C190.44288009 108.81884146 197.12981745 105.53128832 203.9375 102.125 C204.6382666 101.77566406 205.3390332 101.42632812 206.06103516 101.06640625 C209.77459848 99.19364391 213.37150019 97.24995401 216.875 95 C220 93 220 93 222 93 C222 92.34 222 91.68 222 91 C223.3303125 90.4121875 223.3303125 90.4121875 224.6875 89.8125 C228.23903711 87.86920611 230.2382597 85.95441985 233 83 C234.53943762 81.47691039 236.081296 79.95626532 237.625 78.4375 C239.82580343 76.27049731 241.83666724 74.22564692 243.6484375 71.72265625 C244.09445312 71.15417969 244.54046875 70.58570313 245 70 C245.66 70 246.32 70 247 70 C247 69.34 247 68.68 247 68 C247.66 68 248.32 68 249 68 C249.185625 67.21625 249.37125 66.4325 249.5625 65.625 C250.83884996 62.40637837 252.04001226 60.42628548 254.0625 57.6875 C263.50192578 44.61448773 270.307417 29.91292294 273 14 C273.35164083 11.99955436 273.70580919 9.99955137 274.0625 8 C274.21847656 7.0925 274.37445313 6.185 274.53515625 5.25 C275 3 275 3 276 1 C283.26 1 290.52 1 298 1 C297.0758704 15.12598108 297.0758704 15.12598108 296 20 C295.80470703 21.15048828 295.80470703 21.15048828 295.60546875 22.32421875 C294.64846684 27.73530433 293.13888409 32.53397592 290.98828125 37.5859375 C290.09304161 39.77272841 289.40783281 41.92115986 288.75 44.1875 C286.87695176 50.02638781 283.78025774 55.29077177 280.83984375 60.64453125 C279.80743629 62.5274145 278.79389573 64.42202303 277.8515625 66.3515625 C276.85436577 68.2819158 275.52816269 69.47183731 274 71 C273.67 71.99 273.34 72.98 273 74 C272.34 74 271.68 74 271 74 C271 74.99 271 75.98 271 77 C269.5625 78.5625 269.5625 78.5625 268 80 C267.67 80.66 267.34 81.32 267 82 C266.34 82 265.68 82 265 82 C264.7525 82.7425 264.505 83.485 264.25 84.25 C262.89534961 87.23023087 261.4898459 88.89919252 259 91 C258.34 91 257.68 91 257 91 C257 91.66 257 92.32 257 93 C255.4609375 94.55078125 255.4609375 94.55078125 253.375 96.3125 C252.64667969 96.93253906 251.91835938 97.55257812 251.16796875 98.19140625 C249.34331793 99.71359243 247.51710645 101.23377702 245.6875 102.75 C243.08379248 104.84930255 243.08379248 104.84930255 241.25 106.8125 C240 108 240 108 238 108 C238 108.66 238 109.32 238 110 C237.0925 110.433125 236.185 110.86625 235.25 111.3125 C232.07225128 112.84980836 232.07225128 112.84980836 229.75 114.6875 C228 116 228 116 226 116 C226 116.66 226 117.32 226 118 C222.9802079 119.43969458 219.95897965 120.87635087 216.9375 122.3125 C216.08994141 122.71662109 215.24238281 123.12074219 214.36914062 123.53710938 C182.79923936 138.52976519 148.1506824 142.76321523 114 135 C112.40091797 134.6596875 112.40091797 134.6596875 110.76953125 134.3125 C92.45617036 130.14283439 75.51831992 120.34554662 60 110 C60 109.34 60 108.68 60 108 C59.29875 107.77828125 58.5975 107.5565625 57.875 107.328125 C54.34262421 105.69632097 51.79249122 103.39365285 49 100.75 C48.49210937 100.28464844 47.98421875 99.81929688 47.4609375 99.33984375 C44.86561902 96.92420117 42.49062635 94.45298462 40.25 91.703125 C38.28586569 88.97570788 38.28586569 88.97570788 36 88 C36 87.34 36 86.68 36 86 C35.01 85.67 34.02 85.34 33 85 C32.66666667 83.66666667 32.33333333 82.33333333 32 81 C31.01 80.67 30.02 80.34 29 80 C28.3125 77.9375 28.3125 77.9375 28 76 C27.34 76 26.68 76 26 76 C26 75.01 26 74.02 26 73 C25.34 73 24.68 73 24 73 C24 72.01 24 71.02 24 70 C23.34 70 22.68 70 22 70 C15.32353282 58.01659737 8.88430884 46.21059353 5 33 C4.62875 31.741875 4.2575 30.48375 3.875 29.1875 C3.58625 28.135625 3.2975 27.08375 3 26 C2.649375 24.96875 2.29875 23.9375 1.9375 22.875 C0.8085093 18.20850511 0.51869974 13.67513831 0.24609375 8.890625 C0.10819201 5.93355471 0.10819201 5.93355471 -1 3 C-0.67 2.01 -0.34 1.02 0 0 Z " fill="#F0EFEA" transform="translate(43,180)"/>
<path d="M0 0 C2.6425382 0.03842617 5.24024435 0.14525029 7.875 0.3125 C8.60847656 0.34794922 9.34195313 0.38339844 10.09765625 0.41992188 C13.8401109 0.64828659 15.82122987 0.88081991 19 3 C19 3.66 19 4.32 19 5 C19.66 5 20.32 5 21 5 C21 5.66 21 6.32 21 7 C21.66 7 22.32 7 23 7 C24.76650249 10.83362031 25.28971276 13.96861491 25.4140625 18.17578125 C25.45273438 19.33271484 25.49140625 20.48964844 25.53125 21.68164062 C25.5621875 22.87982422 25.593125 24.07800781 25.625 25.3125 C25.66367188 26.53001953 25.70234375 27.74753906 25.7421875 29.00195312 C25.83628002 32.00115228 25.92192209 35.00034823 26 38 C26.58802399 38.00364563 27.17604797 38.00729126 27.78189087 38.01104736 C33.91440031 38.05292972 40.04616533 38.12231547 46.17822266 38.20751953 C48.46525621 38.23570652 50.75238677 38.25693231 53.03955078 38.27099609 C56.33155906 38.29245638 59.62240378 38.33912471 62.9140625 38.390625 C63.93303619 38.39185364 64.95200989 38.39308228 66.00186157 38.39434814 C71.95811271 38.51662181 75.47773796 39.00510749 80 43 C82.64201025 47.05108238 83.70236884 50.1837565 83 55 C80.09611152 60.92393251 78.56841765 61.18496387 72 64 C56.49 64 40.98 64 25 64 C25 95.68 25 127.36 25 160 C28.62829034 157.8230258 30.78614376 156.46072083 33.59375 153.6015625 C34.55087891 152.63476562 34.55087891 152.63476562 35.52734375 151.6484375 C36.17832031 150.98070312 36.82929688 150.31296875 37.5 149.625 C38.47646484 148.635 38.47646484 148.635 39.47265625 147.625 C40.74428019 146.3353935 42.01387311 145.04378058 43.28125 143.75 C44.73026262 142.27464169 46.19185326 140.81165219 47.65625 139.3515625 C49.29302935 137.70932722 50.90593655 136.04310451 52.5 134.359375 C53.325 133.49828125 54.15 132.6371875 55 131.75 C56.2375 130.44289062 56.2375 130.44289062 57.5 129.109375 C62.03616677 125.28198429 67.21490742 125.76720185 72.9375 125.6875 C73.62779297 125.65849609 74.31808594 125.62949219 75.02929688 125.59960938 C80.40232128 125.53340149 82.93859703 126.77757229 87 130 C86.67 132.31 86.34 134.62 86 137 C85.34 137 84.68 137 84 137 C83.79375 137.5775 83.5875 138.155 83.375 138.75 C82 141 82 141 79.125 142.875 C75.6598281 145.23131689 74.25141059 147.5139449 72 151 C70.37064759 152.37868281 68.70250393 153.71274093 67 155 C65.88625 156.11375 65.88625 156.11375 64.75 157.25 C61.67102278 160.32897722 58.40826472 163.12542782 55.0859375 165.9375 C52.87564064 168.12296206 51.57354867 170.33477528 50 173 C48.31640625 174.66015625 48.31640625 174.66015625 46.5625 176.0625 C44.58982853 177.68025569 42.74445709 179.25554291 40.9375 181.0625 C39 183 39 183 35.9375 185.4375 C32.99171874 187.72054974 32.99171874 187.72054974 31.71484375 190.2734375 C29.48094695 193.82528252 26.71130235 196.37576734 23.625 199.1875 C23.06039062 199.72052734 22.49578125 200.25355469 21.9140625 200.80273438 C17.70101012 204.67932771 14.35252893 206.70058723 8.5625 207.4375 C4.24169937 206.90687536 1.65884179 205.38276091 -1 202 C-1.59503887 198.98776154 -1.79407623 196.77997376 -1.72825623 193.77471924 C-1.73408834 192.95035866 -1.73992046 192.12599807 -1.7459293 191.27665687 C-1.75814843 188.51602066 -1.72750475 185.75754063 -1.69702148 182.99707031 C-1.6969661 181.01768335 -1.69953853 179.03829482 -1.70454407 177.05891418 C-1.71054073 171.68503453 -1.67935407 166.31193877 -1.64129519 160.9382143 C-1.60752524 155.32128643 -1.60691798 149.70435501 -1.60255432 144.08734131 C-1.59059385 134.65851205 -1.55676987 125.22997505 -1.50756836 115.80126953 C-1.43813311 102.4859619 -1.40882096 89.17078498 -1.38716781 75.85532618 C-1.36888973 65.53373969 -1.33942685 55.21218043 -1.30859375 44.890625 C-1.30542231 43.77979836 -1.30225088 42.66897173 -1.29898334 41.52448368 C-1.28020952 35.15239119 -1.25589959 28.78036604 -1.22286797 22.40833092 C-1.21351718 20.47368547 -1.20585453 18.53903107 -1.19995499 16.60437202 C-1.19155225 13.97531398 -1.17697891 11.34636506 -1.16062927 8.71734619 C-1.1594494 7.94158902 -1.15826952 7.16583186 -1.15705389 6.3665669 C-1.11429429 1.11429429 -1.11429429 1.11429429 0 0 Z " fill="#F2F1ED" transform="translate(201,66)"/>
<path d="M0 0 C2.6759238 2.6759238 2.25346361 3.97486449 2.26069641 7.71594238 C2.26778122 8.9327066 2.27486603 10.14947083 2.28216553 11.40310669 C2.2798714 12.75897254 2.27736166 14.11483803 2.2746582 15.47070312 C2.27900376 16.89318103 2.28418639 18.3156566 2.29014587 19.73812866 C2.3035727 23.61048523 2.30410984 27.48274439 2.30158257 31.35511971 C2.30051407 34.59018284 2.30539381 37.82522618 2.310188 41.06028509 C2.32129864 48.70003578 2.32171367 56.33973732 2.31567383 63.97949219 C2.30964925 71.84672066 2.32190274 79.71376959 2.3432439 87.58096743 C2.36090444 94.3412046 2.36685375 101.10138489 2.36360615 107.86164427 C2.3617982 111.89622081 2.36437929 115.93066966 2.37832069 119.96522522 C2.39096484 123.76721024 2.38889324 127.56891807 2.37590981 131.3708992 C2.37355768 132.75995098 2.37622933 134.14902265 2.38453293 135.53805161 C2.45753412 148.70913154 0.3304114 158.89758721 -8.5625 168.875 C-10.68004298 170.72106311 -12.41632128 171.94739015 -15 173 C-15 173.66 -15 174.32 -15 175 C-20.64946451 178.0815261 -25.6889591 179.84479983 -32 181 C-32.86625 181.20625 -33.7325 181.4125 -34.625 181.625 C-45.93283116 183.41044702 -55.78938521 179.77506449 -64.9375 173.375 C-76.29865223 164.42921084 -82.40210338 154.42298833 -84.3125 140.0625 C-84.77432846 136.03315261 -85.20175618 132.05754103 -85 128 C-82.6261652 125.6261652 -76.82967823 126.51836718 -73.625 126.375 C-72.65304688 126.3234375 -71.68109375 126.271875 -70.6796875 126.21875 C-69.74640625 126.17492187 -68.813125 126.13109375 -67.8515625 126.0859375 C-66.99385254 126.0451709 -66.13614258 126.0044043 -65.25244141 125.96240234 C-63 126 -63 126 -60 127 C-59.96261719 127.86882812 -59.92523438 128.73765625 -59.88671875 129.6328125 C-59.39922839 138.20228359 -59.39922839 138.20228359 -56 146 C-56 146.99 -56 147.98 -56 149 C-55.34 149 -54.68 149 -54 149 C-53.773125 149.598125 -53.54625 150.19625 -53.3125 150.8125 C-51.34690872 154.08848546 -48.65299853 155.39390054 -45.125 156.6875 C-40.18468559 157.41401682 -37.06399105 157.64240969 -32.6875 155 C-31.800625 154.34 -30.91375 153.68 -30 153 C-29.34 153 -28.68 153 -28 153 C-27.31379969 151.67661368 -26.65213539 150.34050052 -26 149 C-25.6514798 148.29047684 -25.30295959 147.58095367 -24.94387817 146.84992981 C-23.74550642 143.2315864 -23.73585896 139.85453061 -23.77294922 136.08862305 C-23.77265717 135.30760727 -23.77236511 134.52659149 -23.77206421 133.72190857 C-23.77345264 131.15173055 -23.78899079 128.58184586 -23.8046875 126.01171875 C-23.80841936 124.22524677 -23.81126552 122.43877274 -23.81326294 120.65229797 C-23.82088576 115.9587129 -23.84052264 111.26525232 -23.8626709 106.57171631 C-23.88315845 101.77894779 -23.89227088 96.98615909 -23.90234375 92.19335938 C-23.9237698 82.79551833 -23.95788944 73.39776953 -24 64 C-24.87537415 64.02331642 -24.87537415 64.02331642 -25.76843262 64.04710388 C-31.86810154 64.20253142 -37.96720406 64.30777463 -44.06835938 64.38452148 C-46.34202948 64.41962297 -48.61554271 64.46731746 -50.88867188 64.52807617 C-54.16575893 64.61344687 -57.44075 64.65279243 -60.71875 64.68359375 C-62.23172668 64.73778725 -62.23172668 64.73778725 -63.77526855 64.79307556 C-70.44057957 64.79674496 -73.78719232 63.39777959 -78.5489502 58.70252991 C-80.23676663 56.72219956 -80.99374501 55.63675783 -81.01953125 53.01171875 C-80.56545184 47.91403483 -80.04646599 44.51403625 -76 41 C-70.15709414 38.84486499 -64.65856204 38.66129645 -58.47265625 38.5859375 C-57.48373886 38.56657135 -56.49482147 38.5472052 -55.47593689 38.5272522 C-52.33821049 38.46779378 -49.20044672 38.42120644 -46.0625 38.375 C-43.92641689 38.33678916 -41.79034867 38.29773564 -39.65429688 38.2578125 C-34.43633081 38.16212028 -29.21827395 38.07697545 -24 38 C-23.9906543 37.18321777 -23.98130859 36.36643555 -23.97167969 35.52490234 C-23.91784493 31.80766494 -23.83422006 28.091668 -23.75 24.375 C-23.73582031 23.08980469 -23.72164062 21.80460937 -23.70703125 20.48046875 C-23.40044608 8.64628105 -23.40044608 8.64628105 -19 4 C-13.5068211 -0.30546454 -6.75821396 -0.397542 0 0 Z " fill="#F2F2ED" transform="translate(181,66)"/>
<path d="M0 0 C2.6425382 0.03842617 5.24024435 0.14525029 7.875 0.3125 C8.60847656 0.34794922 9.34195313 0.38339844 10.09765625 0.41992188 C13.8401109 0.64828659 15.82122987 0.88081991 19 3 C19 3.66 19 4.32 19 5 C19.66 5 20.32 5 21 5 C20.67 5.66 20.34 6.32 20 7 C19.01 6.34 18.02 5.68 17 5 C17 4.34 17 3.68 17 3 C11.72 2.67 6.44 2.34 1 2 C1 68.33 1 134.66 1 203 C-1.51696154 200.48303846 -1.24026905 198.94537661 -1.26282471 195.51187652 C-1.25768115 194.74019467 -1.25253759 193.96851281 -1.24723816 193.17344666 C-1.24965257 192.3557329 -1.25206699 191.53801914 -1.25455457 190.69552618 C-1.26021566 187.94008538 -1.25151039 185.18487395 -1.24291992 182.42944336 C-1.2439922 180.46035194 -1.24593007 178.49126082 -1.24867249 176.52217102 C-1.25353235 171.16285812 -1.24585119 165.80362809 -1.23571944 160.44432521 C-1.22695866 154.84737026 -1.228696 149.25041805 -1.2290802 143.65345764 C-1.22814273 134.25390225 -1.21944726 124.85437908 -1.20581055 115.45483398 C-1.1900796 104.57121054 -1.18481255 93.68762239 -1.1855461 82.8039884 C-1.18615543 72.35378778 -1.18105896 61.90359872 -1.17275429 51.45340157 C-1.16921416 46.9968615 -1.16739 42.54032551 -1.16686058 38.0837841 C-1.16585956 32.84144602 -1.15978274 27.59913784 -1.14969444 22.35680962 C-1.1467618 20.42699873 -1.14554561 18.4971844 -1.14612198 16.56737137 C-1.14660905 13.94473852 -1.14099289 11.32219075 -1.13371277 8.6995697 C-1.13603567 7.53870083 -1.13603567 7.53870083 -1.1384055 6.35438007 C-1.11417858 1.11417858 -1.11417858 1.11417858 0 0 Z " fill="#818083" transform="translate(201,66)"/>
<path d="M0 0 C2.6425382 0.03842617 5.24024435 0.14525029 7.875 0.3125 C8.60847656 0.34794922 9.34195313 0.38339844 10.09765625 0.41992188 C13.8401109 0.64828659 15.82122987 0.88081991 19 3 C19 3.66 19 4.32 19 5 C19.66 5 20.32 5 21 5 C20.67 5.66 20.34 6.32 20 7 C19.01 6.34 18.02 5.68 17 5 C17 4.34 17 3.68 17 3 C11.72 2.67 6.44 2.34 1 2 C1 18.17 1 34.34 1 51 C0.67 51 0.34 51 0 51 C-0.16781887 43.89769217 -0.32778364 36.79523923 -0.48217773 29.69262695 C-0.53568721 27.27429152 -0.59102313 24.8559958 -0.64819336 22.43774414 C-0.72985542 18.97030201 -0.8050387 15.50277206 -0.87890625 12.03515625 C-0.91945885 10.40236473 -0.91945885 10.40236473 -0.96083069 8.73658752 C-0.98092697 7.73562546 -1.00102325 6.73466339 -1.02172852 5.70336914 C-1.04171402 4.81734512 -1.06169952 3.93132111 -1.08229065 3.01844788 C-1 1 -1 1 0 0 Z " fill="#939294" transform="translate(201,66)"/>
<path d="M0 0 C0 4.27840261 -2.28404432 5.82034457 -5 9 C-5.33 9.99 -5.66 10.98 -6 12 C-11.04545455 17.72727273 -11.04545455 17.72727273 -15 18 C-15.66 17.67 -16.32 17.34 -17 17 C-13.24172913 12.39611818 -9.37336029 8.41183078 -4.83203125 4.578125 C-3.13809049 3.11895215 -1.55835516 1.60177682 0 0 Z " fill="#CFCECF" transform="translate(258,196)"/>
<path d="M0 0 C0 0.99 0 1.98 0 3 C-0.99 3.495 -0.99 3.495 -2 4 C-2.33 4.66 -2.66 5.32 -3 6 C-3.99 5.34 -4.98 4.68 -6 4 C-6.45375 4.495 -6.9075 4.99 -7.375 5.5 C-9 7 -9 7 -11 7 C-11.33 9.64 -11.66 12.28 -12 15 C-12.33 15 -12.66 15 -13 15 C-12.74779531 9.21190227 -12.43487494 5.17399994 -8 1 C-5.07175348 0.02391783 -3.04386724 -0.08226668 0 0 Z " fill="#ABACAB" transform="translate(113,106)"/>
<path d="M0 0 C0.66 1.32 1.32 2.64 2 4 C0.11192137 6.69725519 -1.19824644 8.13216429 -4 10 C-6.28397032 9.65394389 -7.93409037 9.03295481 -10 8 C-4.25 4 -4.25 4 -2 4 C-1.34 2.68 -0.68 1.36 0 0 Z " fill="#A09F9D" transform="translate(155,215)"/>
<path d="M0 0 C0.33 0 0.66 0 1 0 C1 1.65 1 3.3 1 5 C7.6 5 14.2 5 21 5 C21.33 4.34 21.66 3.68 22 3 C21.67 4.32 21.34 5.64 21 7 C14.07 7 7.14 7 0 7 C-1 2 -1 2 0 0 Z " fill="#9E9E9D" transform="translate(43,152)"/>
<path d="M0 0 C3.32643967 2.98232523 5.29152862 5.86370087 7 10 C6.67 10.66 6.34 11.32 6 12 C1.30021142 9.10782241 1.30021142 9.10782241 0.4453125 5.953125 C0.21402785 3.97669255 0.09937182 1.98743631 0 0 Z " fill="#9E9E9C" transform="translate(317,89)"/>
<path d="M0 0 C0 0.99 0 1.98 0 3 C-0.99 3 -1.98 3 -3 3 C-2.67 3.99 -2.34 4.98 -2 6 C-3.25 7.5625 -3.25 7.5625 -5 9 C-7.1875 8.6875 -7.1875 8.6875 -9 8 C-3.85714286 1.42857143 -3.85714286 1.42857143 0 0 Z " fill="#B8B7B7" transform="translate(92,59)"/>
<path d="M0 0 C0 2.62113708 -0.31292445 4.50935112 -1 7 C-4.75 8.125 -4.75 8.125 -7 7 C-4.69 4.69 -2.38 2.38 0 0 Z " fill="#CDCDCD" transform="translate(236,218)"/>
<path d="M0 0 C0.33 0.66 0.66 1.32 1 2 C-0.26418246 2.69965443 -1.53665402 3.38434763 -2.8125 4.0625 C-3.52019531 4.44535156 -4.22789062 4.82820313 -4.95703125 5.22265625 C-7 6 -7 6 -10 5 C-7.3401439 1.55783328 -4.09711714 1.00495326 0 0 Z " fill="#8B8D8C" transform="translate(153,24)"/>
<path d="M0 0 C0.66 0.33 1.32 0.66 2 1 C0.7391988 2.03319813 -0.53403258 3.05124379 -1.8125 4.0625 C-2.87404297 4.91521484 -2.87404297 4.91521484 -3.95703125 5.78515625 C-4.63121094 6.18605469 -5.30539062 6.58695312 -6 7 C-6.99 6.67 -7.98 6.34 -9 6 C-6.03 4.02 -3.06 2.04 0 0 Z " fill="#B4B4B2" transform="translate(263,273)"/>
<path d="M0 0 C0.99 0.495 0.99 0.495 2 1 C1.01 1.495 1.01 1.495 0 2 C0 1.34 0 0.68 0 0 Z M-2 1 C-1.34 1.33 -0.68 1.66 0 2 C0 2.66 0 3.32 0 4 C-0.99 4 -1.98 4 -3 4 C-3 4.66 -3 5.32 -3 6 C-3.99 6.33 -4.98 6.66 -6 7 C-4.25 2.125 -4.25 2.125 -2 1 Z " fill="#F8F8F5" transform="translate(284,258)"/>
<path d="M0 0 C0.66 1.32 1.32 2.64 2 4 C1.01 5.32 0.02 6.64 -1 8 C-1 7.34 -1 6.68 -1 6 C-1.66 5.67 -2.32 5.34 -3 5 C-2.01 3.35 -1.02 1.7 0 0 Z " fill="#C2BCBF" transform="translate(155,215)"/>
<path d="M0 0 C1.1875 1.5625 1.1875 1.5625 2 4 C0.625 7.75 0.625 7.75 -1 11 C-2.60080151 6.99799622 -1.29279692 3.95443764 0 0 Z " fill="#939595" transform="translate(317,189)"/>
</svg>
