<?xml version="1.0" encoding="UTF-8"?>
<svg version="1.1" xmlns="http://www.w3.org/2000/svg" width="500" height="500">
<path d="M0 0 C0.87859629 -0.00322445 1.75719258 -0.00644889 2.662413 -0.00977105 C4.10373891 -0.00744815 4.10373891 -0.00744815 5.57418251 -0.00507832 C7.11041643 -0.00847665 7.11041643 -0.00847665 8.67768538 -0.01194364 C12.11997191 -0.01828925 15.56221913 -0.01745391 19.00451088 -0.01662922 C21.46824126 -0.01962035 23.93197117 -0.02302277 26.39570045 -0.02680683 C32.39966792 -0.03473581 38.40361984 -0.03786168 44.40759109 -0.03841921 C49.28778551 -0.03889435 54.16797669 -0.04094902 59.04817009 -0.04411983 C72.88386479 -0.05292641 86.71955173 -0.0575392 100.55524926 -0.05678936 C101.67409616 -0.05672943 101.67409616 -0.05672943 102.81554604 -0.05666828 C103.56235447 -0.0566274 104.30916291 -0.05658652 105.07860191 -0.0565444 C117.18287838 -0.05613791 129.28712374 -0.06570815 141.3913912 -0.07980665 C153.81942541 -0.09416806 166.24744444 -0.10107696 178.67548716 -0.10021287 C185.653109 -0.09988082 192.63069824 -0.10263131 199.60831261 -0.11339092 C206.16968284 -0.12344383 212.73099591 -0.12316296 219.29237366 -0.11587429 C221.70224355 -0.11482631 224.11211771 -0.11720395 226.52198029 -0.12323475 C229.80842433 -0.13092734 233.09462857 -0.12632785 236.38106728 -0.11860371 C237.33748977 -0.12374727 238.29391227 -0.12889083 239.27931726 -0.13419026 C244.80685212 -0.10542848 249.63603988 0.19242828 254.41127968 3.3070097 C256.27755606 6.1558935 256.34283506 8.91139839 256.69787025 12.27463055 C256.77556082 12.98340532 256.85325138 13.6921801 256.9332962 14.4224329 C257.17282732 16.65654634 257.39150658 18.89185673 257.60460854 21.12863445 C257.67175308 21.81325001 257.73889763 22.49786556 257.80807686 23.20322704 C258.28084686 28.06325863 258.70139483 32.927113 259.11242104 37.79269695 C259.24388555 39.3248897 259.37555286 40.85706505 259.50741005 42.38922405 C259.77991858 45.56375061 260.05027477 48.73845039 260.318964 51.91330242 C260.66247805 55.97062604 261.01113729 60.02748842 261.36132431 64.08424091 C261.63259488 67.23254719 261.90137863 70.38106192 262.16939354 73.52964687 C262.29705566 75.02635475 262.42543393 76.52300172 262.55456352 78.0195837 C262.73406106 80.10472164 262.91024753 82.19011414 263.08556557 84.27560711 C263.18612251 85.45756664 263.28667946 86.63952618 263.39028358 87.85730267 C263.59351932 90.95937502 263.64380867 94.02105553 263.60460854 97.12863445 C259.97460854 97.12863445 256.34460854 97.12863445 252.60460854 97.12863445 C251.14465168 92.29086833 250.00302452 87.44661006 248.95690346 82.50387859 C244.44569222 61.43632096 237.23300261 42.3109605 222.60460854 26.12863445 C222.06578041 25.4737907 221.52695229 24.81894695 220.97179604 24.14425945 C213.04767334 15.14500453 202.0038691 12.20122728 190.60460854 10.12863445 C168.82460854 9.63363445 168.82460854 9.63363445 146.60460854 9.12863445 C146.60460854 44.76863445 146.60460854 80.40863445 146.60460854 117.12863445 C130.10460854 117.12863445 113.60460854 117.12863445 96.60460854 117.12863445 C96.60460854 81.48863445 96.60460854 45.84863445 96.60460854 9.12863445 C54.24180553 7.23667337 54.24180553 7.23667337 20.19445229 25.32394695 C1.9705003 45.05968982 -4.81743122 71.3474899 -9.39539146 97.12863445 C-13.02539146 97.12863445 -16.65539146 97.12863445 -20.39539146 97.12863445 C-20.57273322 86.95984774 -19.88748558 76.97344574 -19.03992271 66.8512907 C-18.96893553 65.9969639 -18.89794834 65.1426371 -18.82481003 64.26242161 C-18.44929675 59.75625244 -18.06690954 55.25072407 -17.67932701 50.74557781 C-17.28166238 46.10465775 -16.91017158 41.46201191 -16.54410839 36.81850815 C-16.25622798 33.23036628 -15.94835058 29.64414038 -15.63505173 26.05813694 C-15.48910788 24.3463927 -15.35080617 22.63397852 -15.22041321 20.9209795 C-15.03672434 18.53087012 -14.82464512 16.14487731 -14.60559654 13.75778484 C-14.55811775 13.05590542 -14.51063896 12.35402599 -14.46172142 11.63087749 C-14.09081084 7.94136508 -13.4049232 6.14057893 -11.06975365 3.21431255 C-7.4051357 0.35635508 -4.5606064 0.0042399 0 0 Z " fill="#F4F4F4" transform="translate(215.3953914642334,77.87136554718018)"/>
<path d="M0 0 C14.52 0 29.04 0 44 0 C44.12032643 22.52778124 44.12032643 22.52778124 44.14648438 32.22851562 C44.1643261 38.81363294 44.18529135 45.39862356 44.22631836 51.98364258 C44.25923193 57.3004958 44.27691956 62.61721289 44.28463173 67.93416023 C44.29011841 69.94925131 44.30082998 71.96433607 44.31719017 73.97936821 C44.49655427 97.01503321 42.24549416 119.08281285 25.8125 136.6875 C10.63420819 151.2810335 -10.87361192 154.09085514 -31 154 C-45.27219388 153.09995174 -57.33732535 147.97072187 -67.33203125 137.57421875 C-75.00316331 128.42294247 -77.89990641 120.77422898 -77.38671875 108.828125 C-76.74206494 102.44670349 -75.0967976 98.0967976 -70.5625 93.5625 C-64.12418664 89.63669917 -58.41123697 89.37483443 -51 90 C-45.53500991 91.72045984 -42.12175988 95.30766527 -39 100 C-36.17689749 107.18607912 -36.3422492 113.61826183 -38.9609375 120.7890625 C-41.31460522 125.7972427 -44.56125137 129.60122113 -49.625 131.9375 C-53 133 -53 133 -57 133 C-57 133.66 -57 134.32 -57 135 C-56.34 135 -55.68 135 -55 135 C-55 135.66 -55 136.32 -55 137 C-54.29875 137.268125 -53.5975 137.53625 -52.875 137.8125 C-50 139 -50 139 -47.25 140.5 C-36.79375645 145.32595856 -26.7411422 144.93103025 -15.9609375 141.3125 C-9.69123714 138.53331884 -7.28851819 134.16759112 -4.75 128 C-0.0609049 113.15801384 -0.66315339 97.51834722 -0.5859375 82.12890625 C-0.56719315 79.75137179 -0.5476174 77.37384376 -0.5272522 74.99632263 C-0.47626984 68.78721939 -0.43646422 62.57809466 -0.39910889 56.36889648 C-0.35885491 50.01345655 -0.30786096 43.65810338 -0.2578125 37.30273438 C-0.16145532 24.86854495 -0.07791839 12.43431866 0 0 Z " fill="#F8F8F8" transform="translate(89,271)"/>
<path d="M0 0 C16.5 0 33 0 50 0 C50 45.54 50 91.08 50 138 C64.19 138 78.38 138 93 138 C93 140.97 93 143.94 93 147 C48.12 147 3.24 147 -43 147 C-43 144.03 -43 141.06 -43 138 C-28.81 138 -14.62 138 0 138 C0 92.46 0 46.92 0 0 Z " fill="#F7F7F7" transform="translate(312,271)"/>
<path d="M0 0 C39.27 0 78.54 0 119 0 C119 2.64 119 5.28 119 8 C108.11 8 97.22 8 86 8 C86 44.3 86 80.6 86 118 C71.48 118 56.96 118 42 118 C42 81.7 42 45.4 42 8 C28.14 8 14.28 8 0 8 C0 5.36 0 2.72 0 0 Z " fill="#F7F7F7" transform="translate(47,77)"/>
<path d="M0 0 C6 0 6 0 8.5546875 2.3359375 C9.70324219 3.84027344 9.70324219 3.84027344 10.875 5.375 C11.65617187 6.37273437 12.43734375 7.37046875 13.2421875 8.3984375 C15 11 15 11 15 13 C15.66 13 16.32 13 17 13 C17 8.71 17 4.42 17 0 C18.98 0 20.96 0 23 0 C23 8.25 23 16.5 23 25 C17 25 17 25 14.4453125 22.59375 C13.67960937 21.5728125 12.91390625 20.551875 12.125 19.5 C11.34382813 18.4790625 10.56265625 17.458125 9.7578125 16.40625 C9.17773438 15.6121875 8.59765625 14.818125 8 14 C7.67 17.63 7.34 21.26 7 25 C4.69 25 2.38 25 0 25 C0 16.75 0 8.5 0 0 Z " fill="#DCDCDC" transform="translate(373,215)"/>
<path d="M0 0 C1.98 0 3.96 0 6 0 C6 3.3 6 6.6 6 10 C9.3 10 12.6 10 16 10 C16 6.7 16 3.4 16 0 C18.31 0 20.62 0 23 0 C23 8.25 23 16.5 23 25 C20.69 25 18.38 25 16 25 C16 21.7 16 18.4 16 15 C11.545 15.495 11.545 15.495 7 16 C6.67 18.97 6.34 21.94 6 25 C4.02 25 2.04 25 0 25 C0 16.75 0 8.5 0 0 Z " fill="#DCDCDC" transform="translate(295,215)"/>
<path d="M0 0 C2.31 0 4.62 0 7 0 C7.33 2.97 7.66 5.94 8 9 C8.56847656 8.3503125 9.13695312 7.700625 9.72265625 7.03125 C15.95429789 0.28984135 15.95429789 0.28984135 19.15625 -0.59765625 C21.0625 -0.5625 21.0625 -0.5625 24 0 C23.60167969 0.45890625 23.20335937 0.9178125 22.79296875 1.390625 C20.08857938 4.52271585 17.42008229 7.63877459 15 11 C16.48445114 14.27628862 18.37609285 16.88793452 20.625 19.6875 C24 23.89591837 24 23.89591837 24 25 C18.89119171 25.70466321 18.89119171 25.70466321 16 25 C13.50873331 22.62339412 11.74263186 19.95719346 10 17 C9.34 17.33 8.68 17.66 8 18 C7.59270772 20.32156597 7.25561323 22.6568787 7 25 C4.69 25 2.38 25 0 25 C0 16.75 0 8.5 0 0 Z " fill="#D6D6D6" transform="translate(413,215)"/>
<path d="M0 0 C6.27 0 12.54 0 19 0 C19 1.98 19 3.96 19 6 C15.04 6 11.08 6 7 6 C7 7.32 7 8.64 7 10 C10.63 10 14.26 10 18 10 C18 11.65 18 13.3 18 15 C14.37 15 10.74 15 7 15 C7 16.65 7 18.3 7 20 C11.29 20 15.58 20 20 20 C20 21.65 20 23.3 20 25 C13.4 25 6.8 25 0 25 C0 16.75 0 8.5 0 0 Z " fill="#D5D5D5" transform="translate(171,215)"/>
<path d="M0 0 C1.98 0 3.96 0 6 0 C6 3.3 6 6.6 6 10 C9.63 10 13.26 10 17 10 C17 6.7 17 3.4 17 0 C18.98 0 20.96 0 23 0 C23 8.25 23 16.5 23 25 C21.02 25 19.04 25 17 25 C17 22.03 17 19.06 17 16 C15.55625 16.020625 14.1125 16.04125 12.625 16.0625 C8.25 16.125 8.25 16.125 6 15 C6 18.3 6 21.6 6 25 C4.02 25 2.04 25 0 25 C0 16.75 0 8.5 0 0 Z " fill="#E5E5E5" transform="translate(96,215)"/>
<path d="M0 0 C6.27 0 12.54 0 19 0 C19 1.98 19 3.96 19 6 C14.71 6 10.42 6 6 6 C6 7.32 6 8.64 6 10 C9.96 10 13.92 10 18 10 C18 11.65 18 13.3 18 15 C14.04 15 10.08 15 6 15 C6 16.65 6 18.3 6 20 C10.62 20 15.24 20 20 20 C20 21.65 20 23.3 20 25 C13.4 25 6.8 25 0 25 C0 16.75 0 8.5 0 0 Z " fill="#D6D6D6" transform="translate(136,215)"/>
<path d="M0 0 C2.31 0 4.62 0 7 0 C8.67585347 3.59996502 10.33908513 7.20562136 12 10.8125 C12.47695313 11.83666016 12.95390625 12.86082031 13.4453125 13.91601562 C13.89648438 14.89892578 14.34765625 15.88183594 14.8125 16.89453125 C15.23144531 17.80050049 15.65039062 18.70646973 16.08203125 19.63989258 C17 22 17 22 17 25 C15.02 25 13.04 25 11 25 C10.34 23.35 9.68 21.7 9 20 C5.37 20 1.74 20 -2 20 C-2.99 22.475 -2.99 22.475 -4 25 C-5.98 25 -7.96 25 -10 25 C-7.37589493 16.35588919 -3.68616238 8.23074615 0 0 Z M3 8 C1.5393715 10.64738916 1 11.89448334 1 15 C2.65 15 4.3 15 6 15 C5.42547254 11.06924356 5.42547254 11.06924356 3 8 Z " fill="#DCDCDC" transform="translate(342,215)"/>
<path d="M0 0 C7.26 0 14.52 0 22 0 C22 1.98 22 3.96 22 6 C19.69 6 17.38 6 15 6 C15 12.27 15 18.54 15 25 C12.69 25 10.38 25 8 25 C8 18.73 8 12.46 8 6 C5.69 6 3.38 6 1 6 C0.67 5.67 0.34 5.34 0 5 C0 3.35 0 1.7 0 0 Z " fill="#CCCCCC" transform="translate(258,215)"/>
<path d="M0 0 C4.95 0 9.9 0 15 0 C15.0809323 3.41714149 15.14046835 6.83236685 15.1875 10.25 C15.21263672 11.21808594 15.23777344 12.18617188 15.26367188 13.18359375 C15.27333984 14.11816406 15.28300781 15.05273438 15.29296875 16.015625 C15.3086792 16.87446289 15.32438965 17.73330078 15.34057617 18.61816406 C14.92522142 21.52296764 13.98227341 22.86882342 12 25 C7.71488964 26.46849288 4.02100956 26.47924939 -0.0625 24.5625 C-0.701875 24.046875 -1.34125 23.53125 -2 23 C-1.34 21.35 -0.68 19.7 0 18 C2.64 18.33 5.28 18.66 8 19 C8.33 14.71 8.66 10.42 9 6 C6.03 6 3.06 6 0 6 C0 4.02 0 2.04 0 0 Z " fill="#D5D5D5" transform="translate(64,215)"/>
<path d="M0 0 C2.31 0 4.62 0 7 0 C7 6.6 7 13.2 7 20 C10.96 20 14.92 20 19 20 C19 21.65 19 23.3 19 25 C12.73 25 6.46 25 0 25 C0 16.75 0 8.5 0 0 Z " fill="#D4D4D4" transform="translate(206,215)"/>
<path d="M0 0 C1.98 0 3.96 0 6 0 C6 8.25 6 16.5 6 25 C4.02 25 2.04 25 0 25 C0 16.75 0 8.5 0 0 Z " fill="#EAEAEA" transform="translate(451,215)"/>
<path d="M0 0 C3.3 0 6.6 0 10 0 C10 0.99 10 1.98 10 3 C6.37 3 2.74 3 -1 3 C-0.67 2.01 -0.34 1.02 0 0 Z " fill="#FEFEFE" transform="translate(143,226)"/>
</svg>
