<?xml version="1.0" standalone="no"?>
<!DOCTYPE svg PUBLIC "-//W3C//DTD SVG 20010904//EN"
 "http://www.w3.org/TR/2001/REC-SVG-20010904/DTD/svg10.dtd">
<svg version="1.0" xmlns="http://www.w3.org/2000/svg"
 width="300.000000pt" height="300.000000pt" viewBox="0 0 300.000000 300.000000"
 preserveAspectRatio="xMidYMid meet">
<metadata>
Created by potrace 1.10, written by Peter Selinger 2001-2011
</metadata>
<g transform="translate(0.000000,300.000000) scale(0.100000,-0.100000)"
fill="#000000" stroke="none">
<path d="M910 1963 c0 -12 3 -14 8 -6 5 8 42 13 97 16 l90 3 -97 2 c-88 2 -98
0 -98 -15z"/>
<path d="M1190 1973 c51 -3 87 -9 92 -16 5 -8 8 -6 8 6 0 15 -10 17 -92 15
l-93 -2 85 -3z"/>
<path d="M1407 1968 c-13 -10 -18 -34 -21 -103 l-5 -90 11 90 c5 50 12 92 14
94 2 2 52 7 111 11 l108 7 -101 1 c-67 1 -106 -2 -117 -10z"/>
<path d="M1732 1974 c10 -9 110 -12 158 -4 36 6 23 8 -59 9 -57 0 -102 -2 -99
-5z"/>
<path d="M1970 1977 c3 -3 58 -7 124 -10 83 -3 121 -9 127 -18 4 -7 10 -11 13
-8 3 2 1 11 -4 19 -7 12 -38 16 -137 18 -70 2 -126 2 -123 -1z"/>
<path d="M1044 1785 c0 -93 2 -133 3 -88 2 45 2 122 0 170 -1 48 -3 12 -3 -82z"/>
<path d="M1170 1788 c0 -93 4 -168 9 -168 11 0 12 302 1 320 -6 10 -10 -45
-10 -152z"/>
<path d="M1580 1943 c0 -5 33 -7 74 -5 l75 4 4 -44 4 -43 1 48 2 47 -80 0
c-44 0 -80 -3 -80 -7z"/>
<path d="M1884 1937 c-2 -7 -3 -82 -1 -167 l3 -155 2 163 2 164 80 -4 c44 -2
80 0 80 5 0 13 -160 8 -166 -6z"/>
<path d="M1524 1921 c-17 -10 -41 -33 -53 -50 -25 -35 -61 -131 -60 -158 0
-10 6 2 13 27 24 86 63 146 116 179 19 11 31 21 25 21 -5 0 -24 -9 -41 -19z"/>
<path d="M2091 1917 c46 -31 90 -105 109 -185 13 -53 20 -67 35 -67 10 0 20 5
22 12 3 7 -3 10 -15 7 -15 -5 -20 3 -30 45 -6 27 -21 70 -33 95 -21 45 -89
116 -111 116 -6 0 4 -10 23 -23z"/>
<path d="M2233 1885 c-1 -27 3 -77 7 -110 l7 -60 0 50 c1 28 -3 77 -7 110 l-7
60 0 -50z"/>
<path d="M1734 1725 c0 -60 1 -84 3 -52 2 32 2 81 0 110 -2 29 -3 3 -3 -58z"/>
<path d="M1374 1710 c1 -32 5 -45 15 -45 8 0 16 6 19 13 2 7 -2 10 -12 6 -11
-4 -16 3 -19 33 -4 34 -4 33 -3 -7z"/>
<path d="M960 1541 c0 -4 12 -6 26 -3 25 5 26 3 22 -31 -2 -20 0 -33 4 -31 4
3 8 21 8 40 0 31 -2 34 -30 34 -16 0 -30 -4 -30 -9z"/>
<path d="M1061 1508 l2 -43 6 40 c4 29 8 35 13 23 4 -10 14 -18 23 -18 8 0 16
8 16 18 1 9 5 -1 9 -23 l7 -40 2 43 c1 31 -3 42 -14 42 -8 0 -15 -7 -15 -15 0
-8 -4 -15 -10 -15 -5 0 -10 7 -10 15 0 8 -7 15 -15 15 -11 0 -15 -11 -14 -42z"/>
<path d="M1294 1536 c-3 -8 -4 -23 -1 -33 3 -11 5 -7 6 11 1 26 4 28 31 24 17
-3 30 -1 30 4 0 14 -60 9 -66 -6z"/>
<path d="M1681 1508 l2 -43 7 40 c4 22 8 32 9 23 0 -10 8 -18 16 -18 9 0 19 8
23 18 5 12 9 6 13 -23 l6 -40 2 43 c1 31 -3 42 -14 42 -8 0 -15 -7 -15 -15 0
-8 -4 -15 -9 -15 -5 0 -11 7 -15 15 -11 30 -26 14 -25 -27z"/>
<path d="M1814 1519 c-18 -36 -9 -49 26 -38 24 8 24 9 -3 5 -21 -3 -27 0 -23
11 3 8 6 16 6 19 0 2 6 2 13 0 6 -1 9 -1 5 1 -15 9 -8 25 8 19 8 -3 12 -2 9 4
-11 18 -24 11 -41 -21z"/>
<path d="M1922 1508 l1 -43 4 38 c4 37 16 47 29 25 4 -6 2 -14 -4 -16 -7 -2
-11 -13 -11 -25 1 -18 2 -19 6 -4 5 18 5 18 18 1 11 -16 12 -15 10 9 -4 32
-22 57 -41 57 -10 0 -14 -12 -12 -42z"/>
<path d="M2047 1543 c-4 -3 -7 -21 -7 -40 0 -25 4 -33 18 -32 10 0 12 3 5 6
-7 2 -13 17 -13 33 0 16 6 31 13 33 6 3 7 6 1 6 -6 1 -14 -2 -17 -6z"/>
<path d="M2082 1529 c-8 -12 -9 -19 -4 -15 5 3 15 -6 22 -19 7 -14 18 -25 23
-25 6 0 2 9 -8 20 -14 16 -16 23 -7 32 16 16 15 28 -1 28 -7 0 -18 -9 -25 -21z"/>
<path d="M2161 1508 l2 -43 7 40 6 40 6 -40 5 -40 1 43 c2 31 -2 42 -13 42
-11 0 -15 -11 -14 -42z"/>
<path d="M1039 1223 c-1 -262 -7 -281 -94 -294 l-40 -6 41 -1 c53 -2 82 20 94
73 5 22 10 118 10 213 l0 172 60 0 60 0 0 -168 c0 -154 -2 -171 -22 -212 -13
-25 -38 -55 -57 -67 -19 -13 -29 -23 -23 -23 7 0 29 16 51 35 55 50 66 97 66
285 l0 155 -72 3 -73 3 -1 -168z"/>
<path d="M1731 1368 c1 -17 2 -19 6 -5 4 14 16 17 74 17 l69 0 2 -217 3 -218
68 -3 c74 -3 90 -18 27 -25 l-40 -4 42 1 c32 1 44 5 46 19 3 15 -5 17 -67 17
l-71 0 0 220 0 220 -80 0 c-77 0 -80 -1 -79 -22z"/>
<path d="M1730 1145 l0 -195 -65 0 c-61 0 -65 -1 -64 -22 1 -17 2 -19 6 -5 4
14 16 17 69 17 l64 0 0 200 c0 110 -2 200 -5 200 -3 0 -5 -88 -5 -195z"/>
<path d="M828 1089 c-10 -5 -18 -15 -18 -21 0 -6 8 -4 18 5 38 34 92 11 92
-39 0 -33 -17 -64 -35 -64 -24 0 -26 -19 -3 -30 22 -11 22 -10 4 4 -17 14 -17
16 -3 16 9 0 23 10 31 22 46 66 -19 146 -86 107z"/>
<path d="M801 1027 c-2 -55 60 -127 109 -127 8 0 -4 10 -28 21 -46 23 -62 44
-73 99 -6 32 -7 32 -8 7z"/>
<path d="M1698 913 c46 -2 118 -2 160 0 42 1 5 3 -83 3 -88 0 -123 -2 -77 -3z"/>
</g>
</svg>
